<svg xmlns="http://www.w3.org/2000/svg" width="512" height="512" viewBox="0 0 512 512">
  <defs>
    <linearGradient id="g" x1="0" y1="0" x2="1" y2="1">
      <stop offset="0%" stop-color="#0ea5a2" />
      <stop offset="100%" stop-color="#c5a572" />
    </linearGradient>
  </defs>
  <rect width="512" height="512" rx="64" fill="url(#g)"/>
  <g fill="#fff" transform="translate(64,64)">
    <path d="M160 256c-53.02 0-96-42.98-96-96s42.98-96 96-96 96 42.98 96 96-42.98 96-96 96Zm216 72c0-79.53-64.47-144-144-144S88 248.47 88 328v24c0 13.255 10.745 24 24 24h248c13.255 0 24-10.745 24-24v-24Z" opacity=".9"/>
    <text x="192" y="320" text-anchor="middle" font-family="Inter, system-ui, sans-serif" font-size="80" font-weight="700">MAC</text>
  </g>
</svg>

