<svg xmlns="http://www.w3.org/2000/svg" width="192" height="192" viewBox="0 0 192 192">
  <defs>
    <linearGradient id="g" x1="0" y1="0" x2="1" y2="1">
      <stop offset="0%" stop-color="#0ea5a2" />
      <stop offset="100%" stop-color="#c5a572" />
    </linearGradient>
  </defs>
  <rect width="192" height="192" rx="24" fill="url(#g)"/>
  <g fill="#fff" transform="translate(24,24)">
    <path d="M48 96c-17.673 0-32-14.327-32-32S30.327 32 48 32s32 14.327 32 32-14.327 32-32 32Zm72 24c0-26.51-21.49-48-48-48S24 93.49 24 120v8c0 4.418 3.582 8 8 8h80c4.418 0 8-3.582 8-8v-8Z" opacity=".9"/>
    <text x="72" y="120" text-anchor="middle" font-family="Inter, system-ui, sans-serif" font-size="28" font-weight="700">MAC</text>
  </g>
</svg>

